<svg width="256" height="256" viewBox="0 0 256 256" fill="none" xmlns="http://www.w3.org/2000/svg">
<path d="M152.242 232.109C137.405 231.983 122.507 231.92 107.67 231.795C107.733 223.118 106.852 211.991 103.144 199.48C101.194 192.88 98.7428 187.033 96.291 182.004C115.842 176.912 135.457 171.819 155.009 166.727C158.027 172.385 161.798 181.375 162.553 192.88C163.81 211.74 156.077 226.01 152.305 232.109H152.242Z" fill="#9B4534"/>
<path d="M212.908 172.698C213.16 180.493 210.645 184.958 208.822 187.786C206.119 191.936 199.958 197.656 191.785 199.29C190.34 199.605 189.208 199.605 187.636 199.668C184.996 199.793 181.726 199.793 176.948 199.103C172.422 198.474 170.096 197.719 167.079 197.09C159.912 195.519 154.317 195.519 148.721 195.582C146.647 195.582 144.761 195.644 143.001 195.77C138.097 196.085 134.576 196.588 129.798 197.279C125.272 197.971 122.946 198.348 120.557 199.04C116.66 200.171 114.019 201.616 113.076 202.057C108.738 204.194 85.6028 216.202 71.835 208.846C63.8508 204.571 60.6447 196.399 58.9472 192.123C54.3579 180.43 57.9413 165.971 65.1082 137.179C67.1828 128.754 69.7603 119.827 74.2867 109.202C75.9842 105.179 77.9959 100.904 80.3849 96.4409C92.8954 72.9906 102.263 56.2055 117.287 54.0051C132.627 51.742 146.206 65.1955 162.992 81.8549C166.073 84.8726 168.776 87.8274 171.228 90.7822C179.15 100.212 184.555 108.636 191.974 121.713C210.645 154.907 212.658 165.091 212.908 172.761V172.698Z" fill="#A5B5EB"/>
<path d="M147.464 86.6961C139.982 92.9824 115.716 92.2288 93.3348 84.9988C70.8912 77.7688 58.8208 66.8301 66.3019 60.4805C73.7831 54.1309 98.0498 54.9482 120.431 62.178C142.812 69.4076 154.945 80.3468 147.464 86.6961Z" fill="#A5B5EB"/>
<path d="M138.153 67.452C136.109 77.0083 116.495 91.3142 94.3911 99.3529C72.2382 107.43 55.9944 106.209 57.9994 96.604C60.0044 86.9985 79.6582 72.7409 101.761 64.7025C123.865 56.6644 140.159 57.8465 138.153 67.452Z" fill="#A5B5EB"/>
<path d="M154.066 46.2083C156.58 53.1237 148.534 65.6971 136.149 74.3731C123.764 83.0485 111.631 84.4319 109.179 77.5157C106.727 70.6007 114.711 58.0274 127.096 49.3517C139.48 40.676 151.614 39.293 154.066 46.2083Z" fill="#A5B5EB"/>
<path d="M140.676 111.027C128.668 110.524 110.876 93.6752 100.88 73.3687C90.8843 53.0632 92.519 37.0321 104.464 37.535C116.409 38.038 134.262 54.8863 144.258 75.1919C154.255 95.4985 152.62 111.529 140.676 111.027Z" fill="#A5B5EB"/>
<path d="M159.159 87.7012C162.806 94.1135 162.993 101.594 159.536 104.36C156.078 107.127 150.295 104.235 146.648 97.8229C143.002 91.4095 142.813 83.9287 146.271 81.1629C149.729 78.3971 155.513 81.2889 159.159 87.7012Z" fill="#231F20"/>
<path d="M119.677 88.3926C123.322 94.8049 123.511 102.286 120.053 105.053C116.596 107.819 110.812 104.927 107.166 98.5144C103.519 92.1009 103.33 84.6201 106.788 81.8543C110.247 79.0885 116.03 81.9803 119.677 88.3926Z" fill="#231F20"/>
<path opacity="0.31" d="M205.343 105.559C207.852 119.56 210.377 133.578 212.901 147.597C215.426 161.615 217.951 175.635 220.461 189.639L220.939 192.311L218.238 192.568C196.864 194.613 175.473 196.673 154.082 198.733C132.691 200.794 111.299 202.854 89.9229 204.898L87.502 205.13L87.2041 202.717C85.3455 187.662 83.4709 172.591 81.5967 157.519C79.7225 142.447 77.8482 127.374 75.9893 112.316L75.6592 109.642L78.3516 109.513C119.772 107.531 161.276 105.484 202.763 103.503L204.956 103.398L205.343 105.559Z" fill="white" stroke="#231F20" stroke-width="5"/>
<path d="M218 190.08C175.249 194.169 132.436 198.321 89.6851 202.41C85.9676 172.297 82.1882 142.123 78.4707 112.01C119.921 110.027 161.371 107.983 202.882 106C207.901 134.006 212.982 162.074 218 190.08Z" fill="white"/>
<path d="M135.517 136.227C135.894 137.023 136.175 138.382 135.497 139.141C134.541 140.134 132.303 139.518 130.01 139.114C127.643 138.718 124.22 138.285 119.815 138.571C120.777 147.006 121.528 153.242 121.912 157.226C122.659 164.988 123.145 171.597 123.376 177.12C123.474 178.914 123.37 180.171 123.064 180.894C122.771 181.754 122.134 182.162 121.315 182.241C119.901 182.377 119.044 181.281 118.812 178.877C118.806 178.808 118.716 176.321 118.47 171.423C118.224 166.524 117.916 161.77 117.46 157.031C117.209 154.42 116.552 148.383 115.491 138.918C114.002 139.061 111.937 139.468 109.621 140.384C107.38 141.294 105.679 142.359 104.487 143.236C103.198 144.677 101.296 145.207 99.8894 144.649C98.8754 144.262 98.1807 143.289 98.0881 142.327C97.8698 140.06 100.695 138.194 102.105 137.226C104.788 135.442 108.546 133.902 116.376 133.287C129.051 132.274 135.032 135.095 135.672 136.281L135.517 136.227Z" fill="#118FF6"/>
<path d="M121.398 183.9C120.207 184.014 117.332 183.806 116.869 178.998C116.863 178.929 116.767 176.373 116.521 171.475C116.274 166.576 115.96 161.754 115.517 157.151C115.286 154.747 114.757 149.252 113.72 140.825C112.542 141.077 111.371 141.397 110.213 141.856C108.547 142.501 106.982 143.415 105.579 144.451C104.1 146.257 101.318 147.01 99.0532 146.119C97.4916 145.507 96.3718 144.02 96.1452 142.448C95.7599 139.226 99.358 136.8 100.91 135.749C104.582 133.316 109.193 132.04 116.122 131.442C129.392 130.372 136.132 133.259 137.236 135.371C137.971 136.756 138.169 138.817 136.948 140.182C135.375 141.79 132.927 141.332 130.56 140.936L129.64 140.747C127.192 140.29 124.547 140.129 121.915 140.105C122.791 147.646 123.408 153.272 123.759 156.912C124.513 164.743 125.005 171.42 125.23 176.875C125.279 178.95 125.188 180.346 124.828 181.282C124.29 182.72 123.03 183.673 121.466 183.824L121.398 183.9ZM117.03 136.97L117.195 138.687C118.257 148.152 118.92 154.259 119.171 156.869C119.621 161.54 119.935 166.362 120.195 171.398C120.421 176.091 120.51 178.578 120.53 178.784C120.669 180.226 121.081 180.603 121.081 180.603C121.265 180.169 121.483 179.316 121.433 177.241C121.215 171.855 120.723 165.177 119.982 157.484C119.598 153.5 118.922 147.256 117.885 138.829L117.707 136.974L119.649 136.857C123.309 136.643 126.936 136.848 130.297 137.426L131.291 137.607C132.285 137.789 133.814 138.058 134.179 137.953C134.179 137.953 133.991 137.555 133.877 137.15C133.141 136.528 128.024 134.109 116.317 135.028C108.488 135.644 105.182 137.21 102.994 138.668C102.147 139.235 99.6059 140.936 99.7994 142.165C99.8325 142.508 100.102 142.968 100.494 143.138C101.042 143.363 102.064 143.056 102.81 142.222C104.769 140.716 106.618 139.637 108.65 138.886C110.674 138.067 112.881 137.578 115.033 137.301L116.894 137.122L117.03 136.97Z" fill="#118FF6"/>
<path d="M179.081 130.646C179.2 131.882 178.396 134.455 176.587 138.304C173.155 145.567 169.082 151.644 164.301 156.611L164.612 159.839C164.75 161.281 164.922 163.067 165.127 165.197C165.326 167.258 165.458 168.631 165.518 169.25C165.842 172.615 165.911 174.896 165.794 176.017C165.56 177.495 164.889 178.323 163.772 178.43C162.358 178.566 161.562 177.326 161.311 174.715C161.298 174.578 161.185 173.41 161.041 171.136C160.823 168.87 160.692 166.733 160.487 164.604L159.866 158.147C157.245 155.903 154.338 152.232 151.061 147.07C147.427 141.32 145.508 136.998 145.224 134.044C145.052 132.259 145.703 131.225 147.192 131.082C148.16 130.989 148.789 131.275 149.159 132.002C149.429 132.461 149.751 133.47 150.262 134.876C150.793 136.489 151.21 137.697 151.668 138.554C154.159 144.138 157.477 148.948 161.629 153.055C166.384 147.813 170.336 141.263 173.479 133.334C173.962 132.109 174.378 130.96 174.861 129.735C175.303 128.86 175.784 128.398 176.454 128.333C177.124 128.269 177.671 128.494 178.245 128.993C178.745 129.499 179.028 130.096 179.094 130.783L179.081 130.646Z" fill="#118FF6"/>
<path d="M163.932 180.078C162.443 180.221 159.914 179.702 159.444 174.825L159.1 171.253C159.037 169.041 158.826 166.843 158.627 164.782L158.065 158.943C155.432 156.562 152.605 152.952 149.416 147.921C145.606 141.91 143.668 137.382 143.363 134.223C142.967 130.101 146.06 129.457 147.028 129.364C148.74 129.199 150.159 129.894 150.813 131.218C151.095 131.814 151.492 132.816 152.017 134.36C152.534 135.835 152.951 137.043 153.335 137.907C155.442 142.627 158.173 146.801 161.528 150.429C165.497 145.61 168.913 139.735 171.702 132.811L171.886 132.377C172.308 131.297 172.736 130.285 173.158 129.205C174.096 127.242 175.396 126.701 176.364 126.608C177.183 126.529 178.475 126.682 179.629 127.749C180.453 128.502 180.925 129.497 181.03 130.596C181.136 131.695 180.949 133.654 178.393 139.099C175.096 146.211 171.023 152.288 166.316 157.247L167.461 169.131C167.798 172.634 167.948 174.977 167.77 176.242C167.255 179.48 164.981 180.046 164.087 180.132L163.932 180.078ZM147.501 132.715C147.501 132.715 147 132.971 147.079 133.796C147.337 136.474 149.236 140.59 152.694 146.08C155.884 151.111 158.71 154.721 161.162 156.773L161.655 157.211L162.343 164.355C162.548 166.484 162.759 168.682 162.903 170.956L163.241 174.459C163.305 175.909 163.588 176.506 163.676 176.636C163.662 176.499 163.791 176.278 163.894 175.783C163.977 175.082 164.041 173.412 163.658 169.428L162.5 157.407L161.757 156.716L162.843 155.502C167.488 150.687 171.568 144.679 174.871 137.636C177.25 132.693 177.254 131.167 177.221 130.824C177.188 130.48 177.093 130.281 176.844 130.028C176.824 129.822 176.756 129.898 176.491 130.27C176.13 131.206 175.709 132.287 175.28 133.298L175.096 133.732C171.892 141.805 167.811 148.576 162.921 153.969L161.564 155.487L160.153 154.097C155.846 149.936 152.427 144.858 149.841 139.076C149.451 138.143 148.953 136.873 148.415 135.192C147.992 133.916 147.683 133.044 147.488 132.578L147.501 132.715Z" fill="#118FF6"/>
<path d="M193.865 124.994C193.931 125.681 193.641 128.135 193.219 132.335C192.549 138.639 192.223 145.395 192.254 152.741C192.267 155.998 192.229 157.943 192.201 158.431C192.103 159.758 191.635 160.357 190.965 160.422C190.295 160.486 189.769 159.705 189.468 158.139C189.174 156.643 189.01 154.163 188.889 150.569C188.734 144.275 189.156 136.955 190.237 128.671C190.74 124.532 191.516 122.447 192.639 122.408C193.458 122.329 193.848 123.262 193.865 124.994ZM193.704 170.141C193.748 171.385 193.55 172.444 193.25 173.235C192.877 174.034 192.395 174.496 191.867 174.478C191.34 174.459 190.779 174.097 190.402 173.301C190.025 172.506 189.777 171.49 189.732 170.246C189.694 169.071 189.906 168.15 190.28 167.351C190.654 166.553 191.142 166.159 191.744 166.17C192.346 166.182 192.826 166.482 193.196 167.209C193.567 167.936 193.808 168.883 193.846 170.058L193.704 170.141Z" fill="#118FF6"/>
<path d="M192.102 176.188C192.102 176.188 191.954 176.202 191.879 176.209C191.135 176.281 189.681 176.005 188.67 174.092C188.118 173.036 187.85 171.814 187.86 170.357C187.802 168.976 188.061 167.772 188.49 166.761C189.36 164.874 190.829 164.525 191.58 164.522C192.325 164.45 193.779 164.726 194.708 166.578C195.247 167.496 195.515 168.719 195.505 170.175C195.576 171.694 195.317 172.897 194.895 173.978C194.086 175.72 192.934 176.246 192.041 176.332L192.102 176.188ZM191.692 168.809C191.583 169.236 191.549 169.655 191.601 170.205C191.654 170.754 191.701 171.235 191.74 171.647C191.843 171.152 191.878 170.733 191.825 170.183C191.778 169.702 191.732 169.222 191.692 168.809ZM191.2 162.132C191.2 162.132 191.051 162.146 190.976 162.154C189.251 162.181 188.083 160.976 187.615 158.456C187.314 156.891 187.144 154.342 187.01 150.611C186.848 144.249 187.332 136.784 188.338 128.507C188.943 123.873 189.925 120.797 192.543 120.684C193.666 120.645 195.594 121.153 195.734 124.952C195.78 125.433 195.683 126.76 195.108 132.5C194.425 138.666 194.105 145.491 194.123 152.699C194.15 156.094 194.111 158.039 194.015 158.603C193.691 161.476 192.168 162.039 191.2 162.132Z" fill="#118FF6"/>
<path d="M105.784 191.937C102.453 199.041 78.437 201.744 65.4865 188.856C54.2961 177.729 48.0723 162.389 51.2784 147.992C54.799 131.836 68.2526 117.439 74.7279 119.639C80.2602 121.525 75.7966 133.784 82.2719 152.456C90.9476 177.477 109.117 184.833 105.784 191.937Z" fill="#667591"/>
</svg>
