<svg width="256" height="256" viewBox="0 0 256 256" fill="none" xmlns="http://www.w3.org/2000/svg">
<path d="M141.24 119.974C151.545 151.226 147.955 178.248 133.229 180.329C118.504 182.41 98.2179 158.764 87.9123 127.512C77.6067 96.2601 81.1971 69.2386 95.9225 67.1574C110.648 65.0762 130.934 88.7225 141.24 119.974Z" fill="#DF7A06"/>
<path d="M117.045 126.591C121.286 159.224 136.221 182.027 150.396 177.528C164.571 173.029 172.619 142.931 168.379 110.298C164.138 77.6648 149.202 54.8616 135.027 59.3609C120.853 63.8602 112.804 93.9583 117.045 126.591Z" fill="#DF7A06"/>
<path d="M123.07 229.49C123.11 226.81 123.37 222.85 124.44 218.2C126.29 210.13 129.01 206.91 130.26 202.18C131.55 197.32 131.52 189.97 125.31 179.32" stroke="#2BBC93" stroke-width="12" stroke-linecap="square" stroke-linejoin="round"/>
<path d="M152.307 63.7227C148.946 64.5494 144.62 68.8781 144.199 69.3738C141.753 72.2793 139.591 76.1151 137.779 80.6813C131.668 72.986 124.898 68.7021 118.643 69.4701C111.312 70.3804 106.145 78.0488 103.866 89.5213C97.9008 83.8644 89.3378 77.2914 82.472 79.6137C69.715 83.944 65.2535 118.22 77.0687 143.805C85.2812 161.586 104.934 182.946 132.083 183.492C136.719 183.585 148.017 183.207 159.599 176.642C183.736 162.972 190.572 132.955 187.615 111.814C183.804 84.5805 162.218 61.2609 152.305 63.713L152.307 63.7227Z" fill="#FDBD57"/>
<path d="M106.865 112.551C110.961 111.533 115.633 111.89 119.945 113.557C126.075 115.905 130.712 120.461 132.731 126.145C132.962 126.773 132.807 127.409 132.422 127.9C132.042 128.385 131.439 128.734 130.726 128.871L130.693 128.877L130.659 128.879C130.597 128.883 130.541 128.892 130.469 128.904C130.405 128.914 130.306 128.932 130.203 128.938L130.041 128.947L129.986 128.911C128.866 128.919 127.696 128.397 127.337 127.366L127.337 127.365C125.75 122.864 122.118 119.237 117.319 117.424L117.318 117.424C114.442 116.333 111.474 116.03 108.932 116.54L108.43 116.653C104.005 117.765 100.402 121.528 99.25 126.339L99.2501 126.342L98.7642 126.222L99.2491 126.342C99.0947 126.97 98.6324 127.458 98.0699 127.762C97.5039 128.068 96.8006 128.211 96.0808 128.136C95.3658 128.061 94.7317 127.785 94.3008 127.352C93.862 126.911 93.637 126.303 93.7968 125.652L93.7978 125.652C95.3282 119.173 100.342 114.151 106.865 112.55L106.865 112.551Z" fill="#231F20" stroke="#231F20"/>
<path d="M162.415 109.55C165.274 108.108 168.343 107.553 171.264 107.976L171.263 107.977C176.799 108.755 181.481 113.1 183.548 119.259C183.766 119.909 183.528 120.545 183.097 121.014C182.669 121.481 182.02 121.827 181.27 121.978L181.271 121.978C180.563 122.126 179.798 122.062 179.16 121.838C178.541 121.62 177.932 121.207 177.717 120.566C176.162 115.918 172.85 112.646 169.635 112.179L169.634 112.179C168.43 112.003 167.104 112.248 165.643 112.993L165.642 112.993C162.629 114.523 158.784 118.634 157.978 125.202L157.977 125.21C157.894 125.804 157.51 126.295 157.026 126.641C156.538 126.989 155.908 127.219 155.233 127.288L154.859 127.325L154.836 127.326C154.075 127.329 153.369 127.13 152.853 126.761C152.33 126.388 151.977 125.812 152.056 125.122L152.056 125.118C152.901 118.236 156.745 112.432 162.414 109.551L162.415 109.55Z" fill="#231F20" stroke="#231F20"/>
<ellipse cx="8.3456" cy="32.5949" rx="8.3456" ry="32.5949" transform="matrix(-0.535061 -0.844814 -0.844814 0.535061 178.004 209.102)" fill="#3F9C81"/>
<path opacity="0.31" d="M195.825 131.559C198.089 144.189 200.367 156.834 202.645 169.48C204.922 182.126 207.2 194.773 209.464 207.406L209.942 210.078L207.241 210.336C187.959 212.18 168.662 214.039 149.365 215.897C130.068 217.756 110.77 219.614 91.4854 221.459L89.0645 221.69L88.7666 219.276C87.09 205.696 85.3988 192.101 83.708 178.505C82.0173 164.909 80.3264 151.311 78.6494 137.728L78.3193 135.054L81.0117 134.925C118.374 133.138 155.821 131.29 193.245 129.503L195.438 129.398L195.825 131.559Z" fill="white" stroke="#231F20" stroke-width="5"/>
<path d="M207.003 207.847C168.436 211.536 129.814 215.281 91.2476 218.97C87.894 191.806 84.4845 164.586 81.1309 137.422C118.524 135.633 155.916 133.789 193.365 132C197.892 157.264 202.476 182.584 207.003 207.847Z" fill="white"/>
<path d="M130.876 154.637C130.988 155.699 130.093 157.935 128.305 161.233C124.895 167.493 120.815 172.691 116.064 176.995L116.288 179.734C116.399 181.019 116.511 182.528 116.679 184.317C116.846 186.105 116.958 187.279 117.014 187.782C117.238 190.689 117.294 192.645 117.126 193.651C116.902 194.937 116.232 195.607 115.114 195.719C113.772 195.831 112.99 194.769 112.822 192.477C112.822 192.366 112.766 191.359 112.654 189.403C112.543 187.447 112.431 185.602 112.263 183.758L111.816 178.169C109.357 176.212 106.562 173.026 103.488 168.611C100.134 163.692 98.3458 159.947 98.1222 157.376C98.0104 155.811 98.6252 154.973 100.134 154.861C101.029 154.805 101.643 155.029 102.035 155.644C102.258 156.035 102.594 156.873 102.985 158.103C103.432 159.444 103.879 160.506 104.215 161.289C106.506 166.096 109.636 170.288 113.549 173.753C118.244 169.226 122.156 163.58 125.342 156.761C125.789 155.755 126.292 154.693 126.796 153.687C127.243 152.905 127.746 152.514 128.361 152.458C128.975 152.402 129.534 152.569 130.037 153.017C130.54 153.464 130.82 153.967 130.876 154.582V154.637Z" fill="#0ABF00"/>
<path d="M114.946 197.171C114.22 197.171 113.549 196.948 112.99 196.445C112.096 195.718 111.593 194.432 111.481 192.644C111.481 192.532 111.425 191.47 111.313 189.514C111.201 187.613 111.09 185.713 110.922 183.924L110.475 178.95C108.016 176.882 105.277 173.696 102.37 169.448C98.849 164.25 97.0045 160.337 96.781 157.543C96.6692 156.369 96.9486 155.363 97.5635 154.692C98.1224 154.021 98.9608 153.63 100.079 153.518C102.035 153.351 102.929 154.357 103.265 154.972C103.544 155.475 103.935 156.369 104.327 157.71C104.774 158.996 105.165 160.002 105.5 160.729C107.512 164.977 110.195 168.721 113.549 171.907C117.685 167.659 121.262 162.405 124.113 156.257C124.56 155.251 125.063 154.189 125.566 153.127C126.404 151.562 127.522 151.171 128.305 151.115C129.311 151.003 130.261 151.339 130.988 152.009C131.77 152.68 132.217 153.518 132.273 154.524C132.329 155.475 132.106 157.207 129.535 161.902C126.181 167.995 122.157 173.249 117.573 177.497L117.741 179.621C117.853 180.906 117.965 182.415 118.132 184.204L118.468 187.725C118.747 190.799 118.747 192.811 118.524 193.929C118.188 195.83 116.958 197.003 115.282 197.115C115.17 197.115 115.058 197.115 115.002 197.115L114.946 197.171ZM100.47 156.313H100.302C100.023 156.313 99.7992 156.425 99.6874 156.481C99.6315 156.592 99.5197 156.816 99.5756 157.319C99.7433 159.611 101.476 163.132 104.718 167.883C107.68 172.187 110.363 175.317 112.711 177.161L113.214 177.553L113.717 183.701C113.884 185.545 113.996 187.39 114.108 189.346C114.22 191.191 114.276 192.197 114.276 192.364C114.387 193.873 114.779 194.209 114.835 194.265C115.338 194.265 115.617 194.265 115.785 193.37C115.897 192.811 115.952 191.358 115.673 187.893L115.338 184.427C115.17 182.639 115.058 181.074 114.946 179.788L114.779 177.664L113.996 176.994L115.17 175.876C119.753 171.74 123.777 166.542 127.131 160.505C129.479 156.257 129.59 154.972 129.535 154.692C129.535 154.692 129.423 154.245 129.199 154.077C128.976 153.91 128.752 153.854 128.528 153.854C128.361 153.854 128.137 154.245 128.025 154.357C127.578 155.307 127.131 156.313 126.628 157.375C123.386 164.306 119.306 170.175 114.555 174.758L113.605 175.652L112.655 174.814C108.574 171.181 105.333 166.821 102.985 161.902C102.594 161.12 102.147 160.002 101.644 158.549C101.141 157.096 100.861 156.537 100.749 156.313C100.749 156.257 100.526 156.201 100.414 156.201L100.47 156.313Z" fill="#0ABF00"/>
<path d="M161.672 188.508C161.672 188.508 160.722 189.235 159.94 189.515C158.095 190.185 154.295 190.018 151.723 190.129C148.985 190.241 146.022 190.856 145.016 191.024C142.613 191.471 141.16 191.918 140.209 191.08C139.315 190.297 139.371 188.844 139.427 188.229C139.706 182.36 138.98 171.237 138.365 166.431C138.141 164.474 138.085 161.959 137.974 156.929C137.974 155.196 137.974 154.693 138.309 154.078C139.371 152.122 141.942 152.401 150.27 151.731C155.86 151.283 158.654 150.892 159.716 152.457C159.772 152.569 160.331 153.352 160.052 154.19C159.549 155.643 156.698 155.755 152.338 156.034C150.214 156.146 146.749 156.37 142.389 156.761C142.613 159.388 142.948 163.524 143.395 169.281C145.24 169.281 146.972 169.169 148.649 169.002C149.823 168.89 151.053 168.778 152.282 168.555C153.512 168.331 154.183 168.275 154.295 168.219C155.86 168.107 156.698 168.666 156.81 170.008C156.922 171.07 156.307 171.74 155.021 172.132C154.127 172.411 152.115 172.691 148.985 172.914C147.252 173.082 145.463 173.194 143.619 173.25C144.066 179.901 144.178 184.484 144.01 186.888H144.904C147.587 186.385 160.499 184.372 161.952 185.993C162.734 186.832 162.567 187.447 162.567 187.447C162.567 187.614 162.455 187.894 161.728 188.453L161.672 188.508Z" fill="#0ABF00"/>
<path d="M141.607 192.981C140.712 192.981 139.93 192.757 139.259 192.199C137.862 190.969 137.918 189.013 137.974 188.23C138.253 182.361 137.526 171.406 136.967 166.655C136.688 164.643 136.632 162.128 136.576 157.153C136.576 155.141 136.576 154.359 137.079 153.409C138.309 151.173 140.601 151.005 146.134 150.614C147.308 150.558 148.649 150.446 150.158 150.334L151.779 150.223C156.698 149.831 159.437 149.608 160.834 151.732C161.057 152.067 161.784 153.353 161.281 154.694C160.499 156.986 157.592 157.153 152.841 157.433H152.394C150.494 157.601 147.587 157.768 143.898 158.048C144.122 160.395 144.345 163.693 144.681 167.829C146.022 167.829 147.308 167.717 148.537 167.605C149.655 167.494 150.885 167.382 152.059 167.158C153.344 166.935 154.071 166.823 154.183 166.823C155.412 166.711 156.418 166.991 157.145 167.55C157.592 167.941 158.151 168.612 158.263 169.897C158.319 170.735 158.207 172.692 155.468 173.53C154.853 173.698 153.512 174.033 149.152 174.369C147.867 174.48 146.525 174.592 145.184 174.648C145.463 179.399 145.575 182.92 145.519 185.38C161.057 182.976 162.399 184.485 163.014 185.156C164.132 186.386 164.02 187.503 163.964 187.783C163.796 188.454 163.405 189.013 162.623 189.627C161.896 190.186 161.225 190.634 160.554 190.857C158.989 191.416 156.53 191.472 154.183 191.528C153.4 191.528 152.618 191.528 151.947 191.584C149.32 191.695 146.358 192.254 145.407 192.478L144.569 192.646C143.507 192.869 142.613 193.037 141.774 193.037L141.607 192.981ZM156.307 152.794C155.189 152.794 153.735 152.905 152.003 153.073L150.382 153.185C148.817 153.297 147.475 153.408 146.302 153.464C141.495 153.8 139.986 153.912 139.483 154.806C139.315 155.085 139.315 155.309 139.315 156.986C139.427 162.016 139.483 164.475 139.706 166.376C140.321 171.183 141.048 182.417 140.768 188.398C140.768 188.789 140.712 189.795 141.104 190.13C141.439 190.41 142.557 190.13 143.898 189.907L144.737 189.739C145.743 189.516 148.817 188.957 151.667 188.789C152.394 188.789 153.177 188.789 154.015 188.733C155.971 188.733 158.375 188.677 159.492 188.23C159.884 188.062 160.331 187.839 160.834 187.448C160.834 187.448 161.002 187.28 161.058 187.224C161.058 187.168 160.946 187.056 160.89 187C160.331 186.721 156.139 186.497 145.128 188.23L142.501 188.454L142.613 186.777C142.78 184.429 142.613 179.958 142.221 173.362L142.11 171.909H143.563C145.351 171.797 147.14 171.686 148.873 171.518C152.673 171.183 154.071 170.903 154.63 170.791C155.468 170.512 155.468 170.288 155.468 170.065C155.468 169.841 155.412 169.673 155.356 169.618C155.3 169.618 155.021 169.45 154.462 169.506C154.35 169.506 153.68 169.618 152.506 169.785C151.22 170.009 149.991 170.121 148.761 170.232C147.028 170.4 145.24 170.456 143.395 170.512H142.054L141.942 169.226C141.495 163.525 141.159 159.389 140.936 156.762L140.824 155.365L142.221 155.253C146.637 154.918 150.046 154.694 152.17 154.526H152.618C155.133 154.359 158.207 154.135 158.598 153.576C158.598 153.52 158.598 153.297 158.431 153.129C158.207 152.738 157.424 152.626 156.251 152.626L156.307 152.794Z" fill="#0ABF00"/>
<path d="M187.384 153.797C187.831 155.865 187.161 157.039 185.428 157.319C184.813 157.43 184.31 157.207 183.807 156.76C183.472 156.312 183.081 155.865 182.745 155.418C181.292 153.909 179.727 153.294 177.938 153.574C174.864 154.077 173.746 156.368 174.641 160.56C174.92 162.014 175.479 163.243 176.262 164.193C176.932 165.032 177.994 165.87 179.447 166.82C182.745 168.888 184.813 170.398 185.708 171.236C187.552 172.969 188.726 175.093 189.285 177.664C189.955 181.017 189.62 183.868 188.279 186.215C186.937 188.563 184.757 190.016 181.851 190.463C178.944 190.91 176.653 190.407 174.473 188.954C172.405 187.557 171.119 185.601 170.56 183.029C170.001 180.458 170.672 179.061 172.517 178.726C174.082 178.502 175.2 179.788 175.814 182.638C177.435 184.259 179.056 184.93 180.621 184.65C181.907 184.427 182.857 183.812 183.528 182.75C184.143 181.688 184.31 180.402 184.031 179.005C183.751 177.72 183.025 176.602 181.739 175.596C181.739 175.596 180.174 174.534 177.156 172.522C172.964 169.727 170.393 166.094 169.443 161.622C168.66 157.989 168.995 154.859 170.393 152.344C171.79 149.829 174.026 148.32 177.044 147.817C179.503 147.425 181.851 147.873 183.919 149.158C185.931 150.388 187.105 151.897 187.496 153.741L187.384 153.797Z" fill="#0ABF00"/>
<path d="M179.894 191.749C177.659 191.749 175.59 191.134 173.746 189.904C171.454 188.339 169.945 186.16 169.386 183.309C168.995 181.465 169.163 180.123 169.833 179.117C170.392 178.335 171.175 177.887 172.293 177.72C173.858 177.496 175.758 178.111 176.764 182.135C178.05 183.309 179.224 183.812 180.341 183.644C181.292 183.477 181.962 183.03 182.465 182.247C182.968 181.409 183.08 180.458 182.857 179.285C182.633 178.223 182.018 177.328 180.956 176.49C180.789 176.378 179.279 175.372 176.429 173.472C171.957 170.509 169.219 166.653 168.213 161.846C167.374 157.933 167.765 154.58 169.275 151.785C170.84 148.935 173.355 147.202 176.708 146.699C179.447 146.252 182.018 146.755 184.366 148.208C186.602 149.605 187.999 151.338 188.446 153.518C188.725 154.971 188.614 156.145 187.999 156.983C187.496 157.766 186.657 158.213 185.54 158.381C184.589 158.548 183.695 158.213 182.968 157.486L181.851 156.033C180.733 154.859 179.503 154.412 178.05 154.636C177.044 154.803 176.373 155.139 175.926 155.754C175.311 156.648 175.199 158.213 175.646 160.281C175.926 161.566 176.373 162.628 177.044 163.411C177.603 164.138 178.609 164.92 179.95 165.814C183.36 167.994 185.428 169.447 186.378 170.342C188.39 172.242 189.676 174.59 190.235 177.328C190.961 180.906 190.626 184.092 189.117 186.663C187.552 189.346 185.148 190.966 181.906 191.469C181.236 191.581 180.509 191.637 179.894 191.637V191.749ZM172.74 179.9C172.74 179.9 172.628 179.9 172.572 179.9C171.902 180.011 171.678 180.291 171.622 180.403C171.343 180.85 171.287 181.744 171.51 182.862C172.013 185.154 173.131 186.83 174.976 188.06C176.876 189.346 179.056 189.793 181.515 189.401C184.086 189.01 185.931 187.781 187.16 185.712C188.39 183.588 188.67 180.962 188.055 177.943C187.552 175.596 186.49 173.695 184.813 172.13C183.975 171.348 181.962 169.895 178.721 167.827C177.156 166.82 175.982 165.87 175.255 164.92C174.361 163.858 173.746 162.461 173.411 160.84C172.852 158.101 173.019 156.033 174.025 154.58C174.808 153.462 176.038 152.791 177.603 152.512C179.783 152.176 181.739 152.903 183.416 154.692L184.533 156.145C184.533 156.145 184.869 156.312 185.092 156.257C185.595 156.201 185.931 156.033 186.043 155.809C186.266 155.474 186.322 154.859 186.154 154.077C185.819 152.568 184.813 151.282 183.08 150.22C181.18 149.046 179.168 148.655 176.932 149.046C174.249 149.438 172.349 150.779 171.119 153.015C169.833 155.306 169.554 158.157 170.281 161.511C171.175 165.647 173.578 169.112 177.547 171.683C180.677 173.733 182.298 174.832 182.409 174.981C183.695 175.987 184.589 177.328 184.925 178.893C185.26 180.57 185.092 182.079 184.31 183.421C183.527 184.762 182.242 185.601 180.621 185.88C178.721 186.215 176.764 185.377 174.864 183.533L174.64 183.309V182.974C174.249 181.576 173.634 179.9 172.684 179.9H172.74Z" fill="#0ABF00"/>
<ellipse cx="98.3047" cy="219.487" rx="8.3456" ry="32.5949" transform="rotate(-57.652 98.3047 219.487)" fill="#3F9C81"/>
</svg>
